<svg width="512" height="332" viewBox="0 0 512 332" fill="none" xmlns="http://www.w3.org/2000/svg">
<path d="M496 240.74H405.153C397.796 207.339 367.912 182.233 332.383 182.233C296.835 182.233 266.964 207.335 259.611 240.74H16C7.164 240.74 0 247.903 0 256.74C0 265.577 7.164 272.74 16 272.74H259.605C266.947 306.159 296.791 331.248 332.383 331.248C367.975 331.248 397.819 306.159 405.161 272.74H496C504.836 272.74 512 265.577 512 256.74C512 247.903 504.836 240.74 496 240.74ZM332.383 299.248C308.977 299.248 289.929 280.233 289.876 256.84L289.877 256.782C289.877 256.724 289.878 256.667 289.878 256.61C289.948 233.243 309.015 214.233 332.383 214.233C355.718 214.233 374.786 233.216 374.887 256.571L374.89 256.806C374.856 280.216 355.801 299.248 332.383 299.248ZM496 59.0002H252.395C245.053 25.5812 215.209 0.493164 179.617 0.493164C144.025 0.493164 114.181 25.5812 106.839 59.0002H16C7.164 59.0002 0 66.1642 0 75.0002C0 83.8372 7.164 91.0002 16 91.0002H106.847C114.204 124.401 144.088 149.507 179.617 149.507C215.165 149.507 245.036 124.405 252.389 91.0002H496C504.836 91.0002 512 83.8372 512 75.0002C512 66.1642 504.836 59.0002 496 59.0002ZM222.123 74.9582C222.123 75.0162 222.122 75.0732 222.122 75.1302C222.052 98.4972 202.985 117.506 179.617 117.506C156.282 117.506 137.214 98.5232 137.113 75.1682L137.11 74.9342C137.145 51.5242 156.2 32.4932 179.617 32.4932C203.023 32.4932 222.071 51.5072 222.124 74.9012L222.123 74.9582Z" fill="black"/>
</svg>
